<svg width="1348" height="1812" viewBox="0 0 1348 1812" fill="none" xmlns="http://www.w3.org/2000/svg">
<g clip-path="url(#clip0_919_1103)">
<g clip-path="url(#clip1_919_1103)">
<g opacity="0.3">
<path d="M19.0413 1187.9C18.8942 1187.99 18.7674 1188.11 18.6688 1188.25C18.5701 1188.39 18.5017 1188.55 18.4678 1188.72C18.4339 1188.89 18.4353 1189.06 18.4718 1189.23C18.5083 1189.4 18.5792 1189.56 18.6801 1189.7L141.694 1359.61C141.885 1359.9 142.183 1360.1 142.521 1360.16C142.86 1360.23 143.211 1360.16 143.498 1359.97C143.785 1359.78 143.984 1359.48 144.052 1359.14C144.119 1358.8 144.05 1358.45 143.859 1358.17L20.8448 1188.26C20.4836 1187.9 19.4013 1187.54 19.0413 1187.9Z" fill="black"/>
<path d="M377.98 1259.32L142.054 1357.81C141.883 1357.87 141.729 1357.98 141.598 1358.1C141.468 1358.23 141.364 1358.39 141.294 1358.56C141.224 1358.73 141.188 1358.91 141.189 1359.09C141.191 1359.27 141.228 1359.46 141.301 1359.62C141.373 1359.79 141.478 1359.94 141.61 1360.07C141.742 1360.2 141.898 1360.3 142.069 1360.36C142.24 1360.43 142.423 1360.46 142.606 1360.46C142.789 1360.45 142.969 1360.41 143.136 1360.33L379.062 1261.85C379.388 1261.7 379.642 1261.43 379.771 1261.09C379.9 1260.76 379.893 1260.39 379.752 1260.06C379.611 1259.73 379.347 1259.47 379.015 1259.33C378.684 1259.19 378.313 1259.19 377.98 1259.32Z" fill="black"/>
<path d="M131.592 1178.51C131.218 1178.54 130.865 1178.7 130.599 1178.96C130.334 1179.23 130.174 1179.58 130.148 1179.96L140.971 1359.25C140.982 1359.63 141.138 1359.98 141.408 1360.24C141.677 1360.51 142.038 1360.65 142.414 1360.65C142.79 1360.65 143.151 1360.51 143.42 1360.24C143.689 1359.98 143.846 1359.63 143.857 1359.25L133.034 1179.96C133.034 1178.87 132.313 1178.15 131.592 1178.51Z" fill="black"/>
<path d="M2.08665 1006.08C1.36546 1006.08 0.643097 1006.8 1.00428 1007.52L18.6798 1189.34C18.6798 1190.06 19.401 1190.78 20.1234 1190.42C20.8446 1190.42 21.567 1189.7 21.2058 1188.98L3.52902 1007.16C3.16784 1006.44 2.80784 1005.72 2.08665 1006.08Z" fill="black"/>
<path d="M380.506 1079.67L376.898 1260.41C376.909 1260.78 377.066 1261.14 377.335 1261.4C377.605 1261.66 377.966 1261.81 378.341 1261.81C378.717 1261.81 379.078 1261.66 379.347 1261.4C379.617 1261.14 379.774 1260.78 379.784 1260.41L383.39 1079.67C383.38 1079.3 383.223 1078.94 382.953 1078.68C382.684 1078.42 382.323 1078.27 381.947 1078.27C381.572 1078.27 381.211 1078.42 380.941 1078.68C380.672 1078.94 380.516 1079.3 380.506 1079.67Z" fill="black"/>
<path d="M264.705 636.32C264.542 636.407 264.405 636.537 264.31 636.696C264.214 636.855 264.164 637.037 264.164 637.222C264.164 637.407 264.214 637.589 264.31 637.748C264.405 637.907 264.542 638.036 264.705 638.124L384.833 771.239C385.074 771.466 385.395 771.589 385.726 771.584C386.058 771.579 386.374 771.445 386.608 771.211C386.843 770.976 386.977 770.66 386.982 770.329C386.987 769.997 386.863 769.677 386.636 769.435L266.51 636.681C266.149 635.959 265.427 635.959 264.705 636.32Z" fill="black"/>
<path d="M265.066 636.32L52.9497 710.993C52.6238 711.143 52.3693 711.413 52.2404 711.748C52.1115 712.082 52.1183 712.454 52.2596 712.783C52.4008 713.113 52.6652 713.374 52.9964 713.511C53.3275 713.648 53.6992 713.651 54.032 713.518L266.51 638.845C266.68 638.78 266.836 638.681 266.966 638.553C267.097 638.425 267.199 638.271 267.267 638.102C267.335 637.932 267.367 637.75 267.36 637.568C267.354 637.385 267.31 637.206 267.231 637.041C267.018 636.68 266.682 636.407 266.284 636.275C265.886 636.142 265.453 636.158 265.066 636.32Z" fill="black"/>
<path d="M53.3113 710.994C52.5901 710.994 51.8677 711.715 52.2289 712.438L65.2126 887.038C65.2126 887.759 65.9338 888.482 66.6562 888.121C67.3774 888.121 68.0997 887.399 67.7385 886.677L54.7548 712.078C54.3924 711.354 54.0324 710.633 53.3113 710.994Z" fill="black"/>
<path d="M384.474 770.515L381.227 945.116C381.227 945.498 381.379 945.865 381.649 946.136C381.92 946.407 382.287 946.559 382.67 946.559C383.052 946.559 383.419 946.407 383.69 946.136C383.96 945.865 384.112 945.498 384.112 945.116L387.364 770.515C387.339 770.141 387.178 769.789 386.913 769.524C386.648 769.259 386.296 769.099 385.922 769.073C385.195 769.434 384.474 769.794 384.474 770.515Z" fill="black"/>
<path d="M265.789 635.959C265.415 635.984 265.062 636.145 264.797 636.41C264.531 636.675 264.371 637.028 264.346 637.403L266.87 812.363C266.881 812.738 267.038 813.095 267.307 813.357C267.577 813.619 267.938 813.765 268.313 813.765C268.689 813.765 269.05 813.619 269.319 813.357C269.589 813.095 269.746 812.738 269.756 812.363L267.232 637.403C266.87 636.68 266.51 635.959 265.789 635.959Z" fill="black"/>
<path d="M269.397 1123.32C269.25 1123.41 269.123 1123.53 269.024 1123.67C268.926 1123.82 268.857 1123.98 268.823 1124.15C268.789 1124.32 268.791 1124.49 268.827 1124.66C268.864 1124.83 268.935 1124.99 269.036 1125.13L377.258 1261.13C377.45 1261.41 377.747 1261.61 378.086 1261.68C378.424 1261.75 378.776 1261.68 379.063 1261.49C379.35 1261.3 379.549 1261 379.617 1260.66C379.684 1260.32 379.615 1259.97 379.423 1259.68L271.2 1123.68C271.11 1123.54 270.99 1123.41 270.848 1123.31C270.707 1123.21 270.546 1123.14 270.377 1123.11C270.208 1123.08 270.034 1123.08 269.865 1123.11C269.696 1123.15 269.537 1123.22 269.397 1123.32Z" fill="black"/>
<path d="M248.473 1096.99C248.326 1097.08 248.199 1097.2 248.1 1097.34C248.002 1097.48 247.933 1097.64 247.899 1097.81C247.866 1097.98 247.867 1098.16 247.903 1098.33C247.94 1098.49 248.011 1098.65 248.112 1098.79L269.034 1125.13C269.226 1125.42 269.523 1125.61 269.862 1125.68C270.2 1125.75 270.551 1125.68 270.839 1125.49C271.126 1125.3 271.325 1125 271.392 1124.66C271.46 1124.32 271.391 1123.97 271.199 1123.68L250.276 1097.35C250.186 1097.2 250.066 1097.08 249.924 1096.98C249.783 1096.88 249.622 1096.81 249.453 1096.78C249.284 1096.74 249.109 1096.74 248.941 1096.78C248.772 1096.82 248.613 1096.89 248.473 1096.99Z" fill="black"/>
<path d="M248.833 1096.99L111.03 1151.46C110.704 1151.61 110.449 1151.88 110.32 1152.21C110.192 1152.55 110.198 1152.92 110.34 1153.25C110.481 1153.58 110.745 1153.84 111.076 1153.98C111.408 1154.12 111.779 1154.12 112.112 1153.98L249.917 1099.51C250.087 1099.44 250.242 1099.34 250.372 1099.21C250.503 1099.09 250.606 1098.93 250.676 1098.76C250.746 1098.59 250.782 1098.41 250.781 1098.23C250.78 1098.04 250.742 1097.86 250.67 1097.69C250.598 1097.53 250.492 1097.37 250.36 1097.25C250.228 1097.12 250.072 1097.02 249.901 1096.95C249.73 1096.89 249.548 1096.86 249.364 1096.86C249.181 1096.87 249.001 1096.91 248.834 1096.99L248.833 1096.99Z" fill="black"/>
<path d="M111.03 1151.46L19.4013 1187.9C19.2311 1187.96 19.0762 1188.07 18.9458 1188.19C18.8153 1188.32 18.712 1188.48 18.6418 1188.65C18.5716 1188.82 18.536 1189 18.5371 1189.18C18.5382 1189.36 18.576 1189.54 18.6483 1189.71C18.7205 1189.88 18.8257 1190.03 18.9577 1190.16C19.0897 1190.29 19.2458 1190.39 19.4169 1190.45C19.5879 1190.52 19.7704 1190.55 19.9536 1190.55C20.1369 1190.54 20.3171 1190.5 20.4837 1190.42L112.112 1153.99C112.438 1153.84 112.693 1153.57 112.822 1153.23C112.95 1152.9 112.944 1152.53 112.802 1152.2C112.661 1151.87 112.397 1151.61 112.066 1151.47C111.734 1151.33 111.363 1151.33 111.03 1151.46Z" fill="black"/>
<path d="M1.36547 1006.08C1.21846 1006.17 1.09166 1006.29 0.992999 1006.43C0.894335 1006.58 0.82592 1006.74 0.792028 1006.91C0.758136 1007.07 0.759493 1007.25 0.796013 1007.42C0.832533 1007.59 0.903433 1007.75 1.00429 1007.89L110.304 1153.63C110.398 1153.77 110.52 1153.89 110.662 1153.99C110.804 1154.08 110.963 1154.15 111.131 1154.18C111.298 1154.21 111.471 1154.21 111.638 1154.18C111.806 1154.15 111.965 1154.08 112.107 1153.99C112.249 1153.89 112.371 1153.77 112.467 1153.63C112.562 1153.49 112.628 1153.33 112.661 1153.16C112.695 1152.99 112.695 1152.82 112.662 1152.65C112.629 1152.49 112.563 1152.33 112.468 1152.18L3.16903 1006.8C3.12939 1006.62 3.04396 1006.44 2.92031 1006.29C2.79666 1006.15 2.63862 1006.03 2.4602 1005.96C2.28179 1005.89 2.08852 1005.86 1.89755 1005.88C1.70658 1005.91 1.52381 1005.97 1.36547 1006.08Z" fill="black"/>
<path d="M110.67 1151.82C110.523 1151.91 110.396 1152.03 110.298 1152.17C110.199 1152.32 110.131 1152.48 110.097 1152.65C110.063 1152.81 110.064 1152.99 110.101 1153.16C110.137 1153.33 110.208 1153.49 110.309 1153.63L130.51 1180.68C130.605 1180.82 130.727 1180.95 130.869 1181.04C131.011 1181.14 131.17 1181.2 131.337 1181.24C131.505 1181.27 131.677 1181.27 131.845 1181.24C132.012 1181.2 132.172 1181.14 132.314 1181.04C132.456 1180.95 132.578 1180.83 132.673 1180.68C132.768 1180.54 132.835 1180.38 132.868 1180.22C132.902 1180.05 132.902 1179.88 132.869 1179.71C132.836 1179.54 132.77 1179.38 132.675 1179.24L112.474 1152.18C112.113 1151.46 111.391 1151.1 110.67 1151.82Z" fill="black"/>
<path d="M269.757 1122.96L131.231 1178.16C131.061 1178.22 130.906 1178.33 130.776 1178.46C130.645 1178.58 130.542 1178.74 130.472 1178.91C130.402 1179.08 130.366 1179.26 130.367 1179.44C130.368 1179.62 130.406 1179.81 130.478 1179.97C130.551 1180.14 130.656 1180.29 130.788 1180.42C130.92 1180.55 131.076 1180.65 131.247 1180.71C131.418 1180.78 131.6 1180.81 131.784 1180.81C131.967 1180.8 132.147 1180.76 132.314 1180.68L270.84 1125.49C271.01 1125.42 271.166 1125.32 271.296 1125.2C271.427 1125.07 271.529 1124.91 271.597 1124.74C271.665 1124.58 271.697 1124.39 271.69 1124.21C271.684 1124.03 271.64 1123.85 271.561 1123.68C271.067 1123.23 270.426 1122.98 269.757 1122.96Z" fill="black"/>
<path d="M381.587 1078.23L269.757 1122.97C269.587 1123.03 269.432 1123.13 269.301 1123.26C269.171 1123.39 269.067 1123.55 268.997 1123.72C268.927 1123.88 268.891 1124.07 268.893 1124.25C268.894 1124.43 268.931 1124.61 269.004 1124.78C269.076 1124.95 269.181 1125.1 269.313 1125.23C269.445 1125.36 269.601 1125.46 269.772 1125.52C269.943 1125.59 270.126 1125.62 270.309 1125.61C270.492 1125.61 270.673 1125.57 270.839 1125.49L382.669 1080.76C382.84 1080.69 382.996 1080.59 383.126 1080.46C383.256 1080.34 383.359 1080.18 383.427 1080.01C383.494 1079.84 383.526 1079.66 383.52 1079.48C383.514 1079.3 383.47 1079.12 383.39 1078.95C382.897 1078.5 382.256 1078.24 381.587 1078.23Z" fill="black"/>
<path d="M296.451 977.221C296.288 977.308 296.151 977.438 296.056 977.597C295.96 977.756 295.91 977.937 295.91 978.123C295.91 978.308 295.96 978.49 296.056 978.648C296.151 978.807 296.288 978.937 296.451 979.024L380.865 1080.39C381.107 1080.62 381.427 1080.74 381.759 1080.74C382.09 1080.73 382.406 1080.6 382.641 1080.37C382.875 1080.13 383.009 1079.81 383.014 1079.48C383.02 1079.15 382.896 1078.83 382.669 1078.59L298.255 977.221C298.143 977.091 298.005 976.987 297.849 976.916C297.693 976.844 297.524 976.807 297.353 976.807C297.182 976.807 297.012 976.844 296.857 976.916C296.701 976.987 296.563 977.091 296.451 977.221Z" fill="black"/>
<path d="M244.142 914.093C243.979 914.18 243.842 914.31 243.747 914.469C243.652 914.628 243.602 914.809 243.602 914.995C243.602 915.18 243.652 915.362 243.747 915.52C243.842 915.679 243.979 915.809 244.142 915.896L296.45 978.666C296.567 978.79 296.708 978.89 296.865 978.959C297.021 979.028 297.19 979.065 297.36 979.068C297.531 979.071 297.701 979.039 297.86 978.975C298.018 978.911 298.162 978.815 298.283 978.695C298.404 978.574 298.499 978.43 298.563 978.271C298.627 978.113 298.659 977.943 298.656 977.772C298.654 977.601 298.617 977.433 298.548 977.276C298.478 977.12 298.379 976.979 298.254 976.862L246.307 914.453C246.047 914.147 245.687 913.943 245.291 913.877C244.894 913.811 244.488 913.887 244.142 914.093Z" fill="black"/>
<path d="M124.377 959.546L1.36372 1006.08C1.0379 1006.23 0.783369 1006.5 0.654445 1006.84C0.525521 1007.17 0.532412 1007.54 0.673648 1007.87C0.814885 1008.2 1.07928 1008.46 1.41042 1008.6C1.74156 1008.74 2.11322 1008.74 2.44609 1008.61L125.46 962.071C125.63 962.003 125.785 961.902 125.915 961.773C126.046 961.644 126.149 961.491 126.219 961.321C126.29 961.152 126.325 960.97 126.324 960.787C126.323 960.604 126.285 960.422 126.213 960.254C126.141 960.085 126.035 959.933 125.903 959.806C125.771 959.679 125.615 959.579 125.444 959.513C125.273 959.447 125.091 959.416 124.908 959.422C124.724 959.428 124.544 959.47 124.377 959.546Z" fill="black"/>
<path d="M247.029 996.341C246.655 996.367 246.302 996.527 246.037 996.792C245.772 997.058 245.611 997.41 245.586 997.785L247.751 1098.43C247.745 1098.63 247.778 1098.82 247.848 1099C247.918 1099.18 248.024 1099.34 248.158 1099.48C248.293 1099.62 248.454 1099.73 248.632 1099.8C248.81 1099.88 249.001 1099.92 249.194 1099.92C249.387 1099.92 249.578 1099.88 249.756 1099.8C249.933 1099.73 250.094 1099.62 250.229 1099.48C250.363 1099.34 250.469 1099.18 250.539 1099C250.609 1098.82 250.642 1098.63 250.637 1098.43L248.472 997.785C248.491 997.591 248.466 997.395 248.401 997.211C248.335 997.027 248.229 996.861 248.091 996.723C247.953 996.585 247.787 996.479 247.603 996.413C247.42 996.347 247.224 996.322 247.029 996.341Z" fill="black"/>
<path d="M245.227 914.092C244.852 914.117 244.5 914.277 244.235 914.542C243.969 914.807 243.809 915.16 243.783 915.534L245.587 997.783C245.598 998.159 245.754 998.516 246.024 998.777C246.293 999.039 246.654 999.186 247.03 999.186C247.405 999.186 247.766 999.039 248.036 998.777C248.305 998.516 248.462 998.159 248.473 997.783L246.669 915.534C246.308 914.453 245.948 914.092 245.227 914.092Z" fill="black"/>
<path d="M65.5764 885.955C65.4294 886.045 65.3026 886.165 65.2039 886.307C65.1053 886.448 65.0369 886.609 65.003 886.778C64.9691 886.947 64.9704 887.122 65.007 887.29C65.0435 887.459 65.1144 887.618 65.2152 887.758L123.656 961.711C123.751 961.853 123.873 961.975 124.015 962.071C124.157 962.166 124.316 962.232 124.484 962.265C124.651 962.299 124.824 962.299 124.991 962.266C125.159 962.233 125.318 962.167 125.46 962.072C125.602 961.977 125.725 961.855 125.82 961.713C125.915 961.571 125.981 961.412 126.014 961.244C126.048 961.077 126.048 960.904 126.015 960.737C125.982 960.569 125.916 960.41 125.821 960.268L67.38 886.316C67.0188 885.594 66.2976 885.594 65.5764 885.955Z" fill="black"/>
<path d="M124.018 959.907C123.871 959.997 123.744 960.117 123.645 960.258C123.547 960.4 123.478 960.56 123.444 960.73C123.41 960.899 123.412 961.073 123.448 961.242C123.485 961.411 123.556 961.57 123.657 961.71L174.521 1025.92C174.712 1026.21 175.01 1026.41 175.348 1026.47C175.687 1026.54 176.038 1026.47 176.325 1026.28C176.612 1026.09 176.811 1025.79 176.879 1025.45C176.947 1025.12 176.877 1024.76 176.686 1024.48L125.821 960.267C125.46 959.547 124.739 959.185 124.018 959.907Z" fill="black"/>
<path d="M382.308 944.035L297.172 976.862C296.846 977.012 296.592 977.282 296.463 977.617C296.334 977.951 296.341 978.323 296.482 978.652C296.623 978.982 296.888 979.243 297.219 979.38C297.55 979.517 297.922 979.52 298.255 979.387L383.39 946.559C383.716 946.41 383.971 946.139 384.099 945.805C384.228 945.47 384.221 945.099 384.08 944.769C383.939 944.44 383.675 944.178 383.343 944.041C383.012 943.904 382.641 943.902 382.308 944.035Z" fill="black"/>
<path d="M268.674 812.723C268.51 812.81 268.374 812.94 268.278 813.099C268.183 813.258 268.133 813.44 268.133 813.625C268.133 813.81 268.183 813.992 268.278 814.15C268.374 814.309 268.51 814.439 268.674 814.526L381.947 945.837C382.064 945.963 382.205 946.064 382.362 946.135C382.519 946.205 382.688 946.243 382.86 946.246C383.032 946.249 383.203 946.218 383.362 946.153C383.522 946.089 383.666 945.993 383.788 945.871C383.909 945.749 384.005 945.604 384.068 945.445C384.132 945.285 384.163 945.114 384.16 944.942C384.156 944.771 384.117 944.601 384.047 944.445C383.976 944.288 383.874 944.147 383.747 944.031L270.478 812.723C270.211 812.546 269.897 812.452 269.576 812.452C269.255 812.452 268.941 812.546 268.674 812.723Z" fill="black"/>
<path d="M267.592 811.281C267.428 811.368 267.292 811.498 267.196 811.657C267.101 811.815 267.051 811.997 267.051 812.182C267.051 812.368 267.101 812.549 267.196 812.708C267.292 812.867 267.428 812.997 267.592 813.084L268.674 814.528C268.791 814.652 268.932 814.752 269.088 814.821C269.245 814.891 269.413 814.928 269.584 814.93C269.755 814.933 269.925 814.901 270.083 814.837C270.242 814.773 270.386 814.678 270.507 814.557C270.627 814.436 270.723 814.292 270.787 814.133C270.851 813.975 270.883 813.805 270.88 813.634C270.877 813.463 270.84 813.295 270.771 813.138C270.702 812.982 270.602 812.841 270.478 812.724L269.395 811.281C269.128 811.104 268.814 811.01 268.493 811.01C268.173 811.01 267.859 811.104 267.592 811.281Z" fill="black"/>
<path d="M267.953 811.279L166.584 848.436C166.259 848.586 166.004 848.857 165.875 849.191C165.746 849.526 165.753 849.897 165.894 850.227C166.036 850.556 166.3 850.817 166.631 850.955C166.962 851.092 167.334 851.094 167.667 850.961L269.035 813.444C269.206 813.38 269.362 813.28 269.492 813.152C269.623 813.024 269.725 812.871 269.793 812.701C269.861 812.531 269.892 812.35 269.886 812.167C269.88 811.984 269.836 811.805 269.757 811.641C269.531 811.4 269.236 811.237 268.913 811.172C268.589 811.107 268.254 811.145 267.953 811.279Z" fill="black"/>
<path d="M166.584 848.436L65.9365 885.593C65.7663 885.661 65.6114 885.763 65.4809 885.892C65.3505 886.02 65.2471 886.174 65.1769 886.343C65.1068 886.513 65.0712 886.694 65.0723 886.878C65.0734 887.061 65.1112 887.242 65.1834 887.411C65.2556 887.579 65.3609 887.732 65.4929 887.859C65.6249 887.986 65.781 888.085 65.952 888.151C66.1231 888.217 66.3056 888.248 66.4888 888.243C66.672 888.237 66.8522 888.195 67.0189 888.118L167.666 850.961C167.837 850.897 167.993 850.797 168.123 850.669C168.254 850.541 168.356 850.388 168.424 850.218C168.492 850.048 168.523 849.867 168.517 849.684C168.511 849.501 168.467 849.322 168.388 849.158C167.894 848.706 167.253 848.45 166.584 848.436Z" fill="black"/>
<path d="M52.5897 710.994C52.4263 711.082 52.2897 711.211 52.1944 711.37C52.0991 711.529 52.0488 711.711 52.0488 711.896C52.0488 712.081 52.0991 712.263 52.1944 712.422C52.2897 712.581 52.4263 712.711 52.5897 712.798L166.224 850.241C166.315 850.388 166.435 850.515 166.576 850.614C166.718 850.712 166.878 850.781 167.048 850.815C167.217 850.849 167.391 850.847 167.56 850.811C167.729 850.774 167.888 850.703 168.028 850.602C168.191 850.515 168.328 850.385 168.423 850.226C168.519 850.068 168.569 849.886 168.569 849.701C168.569 849.515 168.519 849.334 168.423 849.175C168.328 849.016 168.191 848.886 168.028 848.799L54.3945 711.356C53.6721 710.633 52.9509 710.633 52.5897 710.994Z" fill="black"/>
<path d="M166.223 848.798C166.059 848.885 165.923 849.015 165.827 849.174C165.732 849.332 165.682 849.514 165.682 849.699C165.682 849.885 165.732 850.066 165.827 850.225C165.923 850.384 166.059 850.514 166.223 850.601L167.305 852.045C167.547 852.272 167.867 852.395 168.198 852.39C168.53 852.385 168.846 852.251 169.08 852.017C169.315 851.782 169.449 851.466 169.454 851.135C169.459 850.803 169.335 850.483 169.108 850.241L168.026 848.798C167.758 848.621 167.445 848.527 167.124 848.527C166.804 848.527 166.49 848.621 166.223 848.798Z" fill="black"/>
<path d="M269.036 812.363L167.667 849.88C167.497 849.948 167.342 850.049 167.211 850.178C167.081 850.307 166.978 850.461 166.907 850.63C166.837 850.799 166.802 850.981 166.803 851.164C166.804 851.348 166.842 851.529 166.914 851.697C166.986 851.866 167.091 852.018 167.223 852.145C167.355 852.272 167.511 852.372 167.682 852.438C167.854 852.504 168.036 852.535 168.219 852.529C168.402 852.523 168.583 852.481 168.749 852.405L270.118 814.888C270.288 814.82 270.443 814.718 270.574 814.59C270.704 814.461 270.807 814.307 270.878 814.138C270.948 813.968 270.983 813.787 270.982 813.603C270.981 813.42 270.943 813.239 270.871 813.07C270.799 812.902 270.694 812.75 270.562 812.622C270.43 812.495 270.274 812.396 270.102 812.33C269.931 812.264 269.749 812.233 269.566 812.239C269.382 812.244 269.202 812.287 269.036 812.363Z" fill="black"/>
<path d="M385.554 769.434L269.034 812.363C268.708 812.512 268.453 812.783 268.324 813.118C268.195 813.452 268.202 813.824 268.344 814.153C268.485 814.483 268.749 814.744 269.08 814.881C269.411 815.018 269.783 815.021 270.116 814.888L386.637 771.959C386.807 771.891 386.962 771.789 387.092 771.661C387.223 771.532 387.326 771.378 387.396 771.209C387.466 771.04 387.502 770.858 387.501 770.675C387.5 770.491 387.462 770.31 387.39 770.142C387.318 769.973 387.212 769.821 387.08 769.694C386.948 769.566 386.792 769.467 386.621 769.401C386.45 769.335 386.268 769.304 386.084 769.31C385.901 769.315 385.721 769.358 385.554 769.434Z" fill="black"/>
<path d="M171.996 941.509C171.622 941.534 171.269 941.694 171.004 941.96C170.738 942.225 170.578 942.578 170.553 942.952L174.16 1025.2C174.154 1025.39 174.188 1025.59 174.258 1025.77C174.328 1025.95 174.433 1026.11 174.568 1026.25C174.702 1026.39 174.863 1026.5 175.041 1026.57C175.219 1026.65 175.41 1026.69 175.603 1026.69C175.796 1026.69 175.987 1026.65 176.165 1026.57C176.343 1026.5 176.504 1026.39 176.638 1026.25C176.773 1026.11 176.878 1025.95 176.948 1025.77C177.018 1025.59 177.051 1025.39 177.046 1025.2L173.439 942.952C173.413 942.578 173.253 942.225 172.988 941.96C172.723 941.695 172.371 941.534 171.996 941.509Z" fill="black"/>
<path d="M168.028 849.88C167.653 849.905 167.3 850.066 167.035 850.331C166.77 850.596 166.609 850.949 166.584 851.324L170.552 942.952C170.547 943.145 170.58 943.337 170.65 943.517C170.72 943.697 170.825 943.861 170.96 943.999C171.095 944.138 171.255 944.248 171.433 944.323C171.611 944.398 171.802 944.437 171.995 944.437C172.188 944.437 172.379 944.398 172.557 944.323C172.735 944.248 172.896 944.138 173.03 943.999C173.165 943.861 173.27 943.697 173.34 943.517C173.41 943.337 173.444 943.145 173.438 942.952L169.47 851.324C169.489 851.129 169.464 850.933 169.399 850.75C169.333 850.566 169.227 850.399 169.089 850.261C168.951 850.124 168.785 850.018 168.601 849.952C168.418 849.886 168.222 849.861 168.028 849.88Z" fill="black"/>
<path d="M244.504 914.092L171.634 941.508C171.464 941.576 171.309 941.678 171.178 941.807C171.048 941.935 170.944 942.089 170.874 942.258C170.804 942.428 170.768 942.609 170.77 942.793C170.771 942.976 170.808 943.157 170.881 943.326C170.953 943.494 171.058 943.647 171.19 943.774C171.322 943.901 171.478 944 171.649 944.066C171.82 944.132 172.003 944.163 172.186 944.158C172.369 944.152 172.55 944.11 172.716 944.033L245.587 916.256C245.758 916.192 245.913 916.092 246.044 915.964C246.174 915.836 246.276 915.683 246.344 915.513C246.412 915.344 246.444 915.162 246.438 914.979C246.431 914.797 246.387 914.617 246.308 914.453C246.308 914.092 245.226 913.732 244.504 914.092Z" fill="black"/>
<path d="M171.635 941.509L124.378 959.545C124.208 959.613 124.053 959.715 123.922 959.843C123.792 959.972 123.689 960.126 123.618 960.295C123.548 960.465 123.513 960.646 123.514 960.83C123.515 961.013 123.553 961.194 123.625 961.363C123.697 961.531 123.802 961.683 123.934 961.811C124.066 961.938 124.222 962.037 124.393 962.103C124.564 962.169 124.747 962.2 124.93 962.194C125.113 962.189 125.294 962.146 125.46 962.07L172.717 944.033C172.888 943.969 173.044 943.869 173.174 943.741C173.305 943.613 173.407 943.46 173.475 943.29C173.543 943.121 173.575 942.939 173.568 942.756C173.562 942.574 173.518 942.394 173.439 942.23C172.945 941.778 172.304 941.522 171.635 941.509Z" fill="black"/>
<path d="M246.668 996.341L175.241 1023.76C175.071 1023.82 174.916 1023.93 174.786 1024.06C174.655 1024.18 174.552 1024.34 174.482 1024.51C174.411 1024.68 174.376 1024.86 174.377 1025.04C174.378 1025.22 174.416 1025.41 174.488 1025.57C174.56 1025.74 174.666 1025.89 174.798 1026.02C174.93 1026.15 175.086 1026.25 175.257 1026.31C175.428 1026.38 175.61 1026.41 175.793 1026.41C175.977 1026.4 176.157 1026.36 176.324 1026.28L247.391 998.865C247.561 998.8 247.717 998.701 247.847 998.573C247.978 998.445 248.08 998.291 248.148 998.122C248.216 997.952 248.248 997.77 248.241 997.588C248.235 997.405 248.191 997.226 248.112 997.061C248.09 996.904 248.03 996.754 247.937 996.625C247.845 996.496 247.722 996.391 247.58 996.321C247.438 996.25 247.28 996.214 247.121 996.218C246.963 996.222 246.807 996.264 246.668 996.341Z" fill="black"/>
<path d="M296.814 976.862L246.31 996.338C246.139 996.406 245.984 996.507 245.854 996.636C245.724 996.765 245.62 996.918 245.55 997.088C245.48 997.257 245.444 997.439 245.445 997.622C245.446 997.805 245.484 997.986 245.556 998.155C245.629 998.323 245.734 998.476 245.866 998.603C245.998 998.73 246.154 998.83 246.325 998.895C246.496 998.961 246.679 998.992 246.862 998.987C247.045 998.981 247.225 998.939 247.392 998.862L297.896 979.387C298.067 979.322 298.223 979.223 298.353 979.095C298.483 978.967 298.586 978.813 298.654 978.644C298.721 978.474 298.753 978.292 298.747 978.11C298.741 977.927 298.697 977.748 298.617 977.583C298.617 976.862 297.535 976.501 296.814 976.862Z" fill="black"/>
</g>
</g>
</g>
<g clip-path="url(#clip2_919_1103)">
<g clip-path="url(#clip3_919_1103)">
<g opacity="0.3">
<path d="M1328.96 623.304C1329.11 623.214 1329.23 623.094 1329.33 622.952C1329.43 622.811 1329.5 622.65 1329.53 622.481C1329.57 622.312 1329.56 622.137 1329.53 621.969C1329.49 621.8 1329.42 621.641 1329.32 621.5L1206.31 451.591C1206.11 451.304 1205.82 451.104 1205.48 451.037C1205.14 450.969 1204.79 451.039 1204.5 451.23C1204.22 451.422 1204.02 451.719 1203.95 452.058C1203.88 452.396 1203.95 452.747 1204.14 453.034L1327.16 622.943C1327.52 623.304 1328.6 623.664 1328.96 623.304Z" fill="black"/>
<path d="M970.02 551.876L1205.95 453.393C1206.12 453.325 1206.27 453.224 1206.4 453.095C1206.53 452.966 1206.64 452.812 1206.71 452.643C1206.78 452.474 1206.81 452.292 1206.81 452.109C1206.81 451.926 1206.77 451.744 1206.7 451.576C1206.63 451.407 1206.52 451.255 1206.39 451.128C1206.26 451.001 1206.1 450.901 1205.93 450.835C1205.76 450.769 1205.58 450.738 1205.39 450.744C1205.21 450.75 1205.03 450.792 1204.86 450.868L968.938 549.351C968.612 549.5 968.358 549.771 968.229 550.106C968.1 550.44 968.107 550.812 968.248 551.141C968.389 551.471 968.653 551.732 968.985 551.869C969.316 552.006 969.687 552.009 970.02 551.876Z" fill="black"/>
<path d="M1216.41 632.687C1216.78 632.661 1217.14 632.501 1217.4 632.236C1217.67 631.97 1217.83 631.618 1217.85 631.243L1207.03 451.95C1207.02 451.574 1206.86 451.218 1206.59 450.956C1206.32 450.694 1205.96 450.547 1205.59 450.547C1205.21 450.547 1204.85 450.694 1204.58 450.956C1204.31 451.218 1204.15 451.574 1204.14 451.95L1214.97 631.243C1214.97 632.326 1215.69 633.047 1216.41 632.687Z" fill="black"/>
<path d="M1345.91 805.117C1346.63 805.117 1347.36 804.396 1347 803.675L1329.32 621.86C1329.32 621.139 1328.6 620.417 1327.88 620.778C1327.16 620.778 1326.43 621.499 1326.79 622.22L1344.47 804.035C1344.83 804.757 1345.19 805.479 1345.91 805.117Z" fill="black"/>
<path d="M967.494 731.527L971.102 550.793C971.091 550.418 970.934 550.061 970.665 549.8C970.395 549.538 970.034 549.391 969.659 549.391C969.283 549.391 968.922 549.538 968.653 549.8C968.383 550.061 968.226 550.418 968.216 550.793L964.61 731.527C964.62 731.902 964.777 732.259 965.047 732.521C965.316 732.783 965.677 732.929 966.053 732.929C966.428 732.929 966.789 732.783 967.059 732.521C967.328 732.259 967.484 731.902 967.494 731.527Z" fill="black"/>
<path d="M1083.3 1174.88C1083.46 1174.79 1083.6 1174.66 1083.69 1174.5C1083.79 1174.34 1083.84 1174.16 1083.84 1173.98C1083.84 1173.79 1083.79 1173.61 1083.69 1173.45C1083.6 1173.29 1083.46 1173.16 1083.3 1173.08L963.167 1039.96C962.926 1039.73 962.605 1039.61 962.274 1039.62C961.942 1039.62 961.626 1039.75 961.392 1039.99C961.157 1040.22 961.023 1040.54 961.018 1040.87C961.013 1041.2 961.137 1041.52 961.364 1041.76L1081.49 1174.52C1081.85 1175.24 1082.57 1175.24 1083.3 1174.88Z" fill="black"/>
<path d="M1082.93 1174.88L1295.05 1100.21C1295.38 1100.06 1295.63 1099.79 1295.76 1099.45C1295.89 1099.12 1295.88 1098.75 1295.74 1098.42C1295.6 1098.09 1295.33 1097.83 1295 1097.69C1294.67 1097.55 1294.3 1097.55 1293.97 1097.68L1081.49 1172.36C1081.32 1172.42 1081.16 1172.52 1081.03 1172.65C1080.9 1172.77 1080.8 1172.93 1080.73 1173.1C1080.67 1173.27 1080.63 1173.45 1080.64 1173.63C1080.65 1173.81 1080.69 1173.99 1080.77 1174.16C1080.98 1174.52 1081.32 1174.79 1081.72 1174.93C1082.11 1175.06 1082.55 1175.04 1082.93 1174.88Z" fill="black"/>
<path d="M1294.69 1100.21C1295.41 1100.21 1296.13 1099.48 1295.77 1098.76L1282.79 924.162C1282.79 923.441 1282.07 922.718 1281.34 923.079C1280.62 923.079 1279.9 923.801 1280.26 924.523L1293.25 1099.12C1293.61 1099.85 1293.97 1100.57 1294.69 1100.21Z" fill="black"/>
<path d="M963.526 1040.68L966.773 866.084C966.773 865.702 966.621 865.335 966.351 865.064C966.08 864.793 965.713 864.641 965.33 864.641C964.948 864.641 964.581 864.793 964.31 865.064C964.04 865.335 963.888 865.702 963.888 866.084L960.636 1040.68C960.661 1041.06 960.822 1041.41 961.087 1041.68C961.352 1041.94 961.704 1042.1 962.078 1042.13C962.805 1041.77 963.526 1041.41 963.526 1040.68Z" fill="black"/>
<path d="M1082.21 1175.24C1082.59 1175.22 1082.94 1175.06 1083.2 1174.79C1083.47 1174.52 1083.63 1174.17 1083.65 1173.8L1081.13 998.837C1081.12 998.461 1080.96 998.105 1080.69 997.843C1080.42 997.581 1080.06 997.435 1079.69 997.435C1079.31 997.435 1078.95 997.581 1078.68 997.843C1078.41 998.105 1078.25 998.461 1078.24 998.837L1080.77 1173.8C1081.13 1174.52 1081.49 1175.24 1082.21 1175.24Z" fill="black"/>
<path d="M1078.6 687.877C1078.75 687.786 1078.88 687.667 1078.98 687.525C1079.07 687.383 1079.14 687.223 1079.18 687.054C1079.21 686.884 1079.21 686.71 1079.17 686.541C1079.14 686.373 1079.07 686.213 1078.96 686.073L970.742 550.073C970.55 549.786 970.253 549.587 969.914 549.52C969.576 549.452 969.224 549.521 968.937 549.713C968.65 549.904 968.451 550.202 968.383 550.54C968.316 550.879 968.385 551.23 968.577 551.517L1076.8 687.516C1076.89 687.663 1077.01 687.789 1077.15 687.888C1077.29 687.987 1077.45 688.055 1077.62 688.089C1077.79 688.123 1077.97 688.122 1078.14 688.085C1078.3 688.049 1078.46 687.978 1078.6 687.877Z" fill="black"/>
<path d="M1099.53 714.21C1099.67 714.12 1099.8 714 1099.9 713.858C1100 713.717 1100.07 713.556 1100.1 713.387C1100.13 713.218 1100.13 713.043 1100.1 712.875C1100.06 712.706 1099.99 712.547 1099.89 712.407L1078.97 686.072C1078.77 685.785 1078.48 685.586 1078.14 685.518C1077.8 685.45 1077.45 685.52 1077.16 685.711C1076.87 685.903 1076.68 686.2 1076.61 686.539C1076.54 686.877 1076.61 687.228 1076.8 687.516L1097.72 713.85C1097.81 713.997 1097.93 714.124 1098.08 714.222C1098.22 714.321 1098.38 714.389 1098.55 714.423C1098.72 714.457 1098.89 714.455 1099.06 714.419C1099.23 714.382 1099.39 714.311 1099.53 714.21Z" fill="black"/>
<path d="M1099.17 714.211L1236.97 659.74C1237.3 659.59 1237.55 659.32 1237.68 658.985C1237.81 658.651 1237.8 658.279 1237.66 657.95C1237.52 657.62 1237.25 657.359 1236.92 657.222C1236.59 657.085 1236.22 657.082 1235.89 657.215L1098.08 711.688C1097.91 711.756 1097.76 711.857 1097.63 711.986C1097.5 712.115 1097.39 712.268 1097.32 712.438C1097.25 712.607 1097.22 712.789 1097.22 712.972C1097.22 713.155 1097.26 713.336 1097.33 713.505C1097.4 713.673 1097.51 713.826 1097.64 713.953C1097.77 714.08 1097.93 714.18 1098.1 714.246C1098.27 714.312 1098.45 714.343 1098.64 714.337C1098.82 714.331 1099 714.289 1099.17 714.212L1099.17 714.211Z" fill="black"/>
<path d="M1236.97 659.739L1328.6 623.304C1328.77 623.236 1328.92 623.135 1329.05 623.006C1329.18 622.877 1329.29 622.723 1329.36 622.554C1329.43 622.385 1329.46 622.203 1329.46 622.02C1329.46 621.836 1329.42 621.655 1329.35 621.487C1329.28 621.318 1329.17 621.166 1329.04 621.039C1328.91 620.912 1328.75 620.812 1328.58 620.746C1328.41 620.68 1328.23 620.649 1328.05 620.655C1327.86 620.66 1327.68 620.703 1327.52 620.779L1235.89 657.214C1235.56 657.363 1235.31 657.634 1235.18 657.969C1235.05 658.303 1235.06 658.675 1235.2 659.004C1235.34 659.334 1235.6 659.595 1235.93 659.732C1236.27 659.869 1236.64 659.872 1236.97 659.739Z" fill="black"/>
<path d="M1346.63 805.117C1346.78 805.027 1346.91 804.907 1347.01 804.766C1347.11 804.624 1347.17 804.463 1347.21 804.294C1347.24 804.125 1347.24 803.951 1347.2 803.782C1347.17 803.613 1347.1 803.454 1347 803.314L1237.7 657.574C1237.6 657.432 1237.48 657.31 1237.34 657.215C1237.2 657.119 1237.04 657.053 1236.87 657.02C1236.7 656.986 1236.53 656.986 1236.36 657.019C1236.19 657.052 1236.03 657.118 1235.89 657.213C1235.75 657.307 1235.63 657.429 1235.53 657.571C1235.44 657.713 1235.37 657.872 1235.34 658.04C1235.31 658.207 1235.3 658.38 1235.34 658.547C1235.37 658.715 1235.44 658.874 1235.53 659.016L1344.83 804.396C1344.87 804.584 1344.96 804.76 1345.08 804.907C1345.2 805.054 1345.36 805.168 1345.54 805.239C1345.72 805.311 1345.91 805.337 1346.1 805.316C1346.29 805.294 1346.48 805.226 1346.63 805.117Z" fill="black"/>
<path d="M1237.33 659.378C1237.48 659.287 1237.6 659.167 1237.7 659.026C1237.8 658.884 1237.87 658.724 1237.9 658.554C1237.94 658.385 1237.94 658.211 1237.9 658.042C1237.86 657.873 1237.79 657.714 1237.69 657.574L1217.49 630.518C1217.39 630.376 1217.27 630.254 1217.13 630.159C1216.99 630.064 1216.83 629.998 1216.66 629.964C1216.5 629.931 1216.32 629.93 1216.16 629.964C1215.99 629.997 1215.83 630.062 1215.69 630.157C1215.54 630.252 1215.42 630.374 1215.33 630.516C1215.23 630.657 1215.17 630.817 1215.13 630.984C1215.1 631.152 1215.1 631.324 1215.13 631.492C1215.16 631.659 1215.23 631.819 1215.32 631.961L1235.53 659.016C1235.89 659.738 1236.61 660.099 1237.33 659.378Z" fill="black"/>
<path d="M1078.24 688.237L1216.77 633.043C1216.94 632.975 1217.09 632.874 1217.22 632.745C1217.35 632.616 1217.46 632.462 1217.53 632.293C1217.6 632.124 1217.63 631.942 1217.63 631.759C1217.63 631.575 1217.59 631.394 1217.52 631.226C1217.45 631.057 1217.34 630.905 1217.21 630.778C1217.08 630.651 1216.92 630.551 1216.75 630.485C1216.58 630.419 1216.4 630.388 1216.22 630.394C1216.03 630.4 1215.85 630.442 1215.69 630.518L1077.16 685.712C1076.99 685.777 1076.83 685.876 1076.7 686.004C1076.57 686.132 1076.47 686.286 1076.4 686.455C1076.34 686.625 1076.3 686.807 1076.31 686.989C1076.32 687.172 1076.36 687.351 1076.44 687.516C1076.93 687.967 1077.57 688.223 1078.24 688.237Z" fill="black"/>
<path d="M966.413 732.969L1078.24 688.234C1078.41 688.166 1078.57 688.065 1078.7 687.936C1078.83 687.807 1078.93 687.654 1079 687.485C1079.07 687.315 1079.11 687.133 1079.11 686.95C1079.11 686.767 1079.07 686.586 1079 686.417C1078.92 686.249 1078.82 686.096 1078.69 685.969C1078.55 685.842 1078.4 685.742 1078.23 685.677C1078.06 685.611 1077.87 685.58 1077.69 685.585C1077.51 685.591 1077.33 685.633 1077.16 685.71L965.331 730.444C965.16 730.509 965.004 730.608 964.874 730.736C964.744 730.864 964.641 731.018 964.573 731.188C964.506 731.357 964.474 731.539 964.48 731.722C964.486 731.904 964.53 732.083 964.61 732.248C965.103 732.699 965.744 732.956 966.413 732.969Z" fill="black"/>
<path d="M1051.55 833.979C1051.71 833.892 1051.85 833.762 1051.94 833.603C1052.04 833.444 1052.09 833.262 1052.09 833.077C1052.09 832.892 1052.04 832.71 1051.94 832.551C1051.85 832.393 1051.71 832.263 1051.55 832.175L967.135 730.807C966.893 730.58 966.573 730.456 966.241 730.461C965.91 730.467 965.594 730.601 965.359 730.835C965.125 731.069 964.991 731.386 964.986 731.717C964.98 732.048 965.104 732.369 965.331 732.61L1049.75 833.979C1049.86 834.109 1050 834.213 1050.15 834.284C1050.31 834.356 1050.48 834.393 1050.65 834.393C1050.82 834.393 1050.99 834.356 1051.14 834.284C1051.3 834.213 1051.44 834.109 1051.55 833.979Z" fill="black"/>
<path d="M1103.86 897.107C1104.02 897.02 1104.16 896.89 1104.25 896.731C1104.35 896.572 1104.4 896.391 1104.4 896.205C1104.4 896.02 1104.35 895.838 1104.25 895.68C1104.16 895.521 1104.02 895.391 1103.86 895.304L1051.55 832.534C1051.43 832.41 1051.29 832.31 1051.14 832.241C1050.98 832.172 1050.81 832.134 1050.64 832.132C1050.47 832.129 1050.3 832.161 1050.14 832.225C1049.98 832.289 1049.84 832.384 1049.72 832.505C1049.6 832.626 1049.5 832.77 1049.44 832.929C1049.37 833.087 1049.34 833.257 1049.34 833.428C1049.35 833.599 1049.38 833.767 1049.45 833.924C1049.52 834.08 1049.62 834.221 1049.75 834.338L1101.69 896.747C1101.95 897.053 1102.31 897.257 1102.71 897.323C1103.11 897.389 1103.51 897.313 1103.86 897.107Z" fill="black"/>
<path d="M1223.62 851.654L1346.64 805.117C1346.96 804.968 1347.22 804.697 1347.35 804.363C1347.47 804.028 1347.47 803.657 1347.33 803.327C1347.19 802.998 1346.92 802.737 1346.59 802.599C1346.26 802.462 1345.89 802.46 1345.55 802.593L1222.54 849.129C1222.37 849.197 1222.22 849.298 1222.08 849.427C1221.95 849.556 1221.85 849.709 1221.78 849.879C1221.71 850.048 1221.67 850.23 1221.68 850.413C1221.68 850.596 1221.71 850.778 1221.79 850.946C1221.86 851.114 1221.96 851.267 1222.1 851.394C1222.23 851.521 1222.38 851.621 1222.56 851.687C1222.73 851.753 1222.91 851.784 1223.09 851.778C1223.28 851.772 1223.46 851.73 1223.62 851.654Z" fill="black"/>
<path d="M1100.97 814.859C1101.34 814.833 1101.7 814.673 1101.96 814.408C1102.23 814.142 1102.39 813.79 1102.41 813.415L1100.25 712.768C1100.25 712.575 1100.22 712.383 1100.15 712.203C1100.08 712.023 1099.98 711.859 1099.84 711.72C1099.71 711.582 1099.55 711.472 1099.37 711.397C1099.19 711.322 1099 711.283 1098.81 711.283C1098.61 711.283 1098.42 711.322 1098.24 711.397C1098.07 711.472 1097.91 711.582 1097.77 711.72C1097.64 711.859 1097.53 712.023 1097.46 712.203C1097.39 712.383 1097.36 712.575 1097.36 712.768L1099.53 813.415C1099.51 813.609 1099.53 813.805 1099.6 813.989C1099.67 814.173 1099.77 814.339 1099.91 814.477C1100.05 814.615 1100.21 814.721 1100.4 814.787C1100.58 814.853 1100.78 814.877 1100.97 814.859Z" fill="black"/>
<path d="M1102.77 897.108C1103.15 897.083 1103.5 896.923 1103.77 896.658C1104.03 896.393 1104.19 896.04 1104.22 895.666L1102.41 813.416C1102.4 813.041 1102.25 812.684 1101.98 812.423C1101.71 812.161 1101.35 812.014 1100.97 812.014C1100.59 812.014 1100.23 812.161 1099.96 812.423C1099.69 812.684 1099.54 813.041 1099.53 813.416L1101.33 895.666C1101.69 896.747 1102.05 897.108 1102.77 897.108Z" fill="black"/>
<path d="M1282.42 925.245C1282.57 925.155 1282.7 925.035 1282.8 924.893C1282.89 924.752 1282.96 924.591 1283 924.422C1283.03 924.253 1283.03 924.078 1282.99 923.91C1282.96 923.741 1282.89 923.582 1282.78 923.442L1224.34 849.489C1224.25 849.347 1224.13 849.224 1223.99 849.129C1223.84 849.034 1223.68 848.968 1223.52 848.935C1223.35 848.901 1223.18 848.901 1223.01 848.934C1222.84 848.967 1222.68 849.033 1222.54 849.128C1222.4 849.223 1222.28 849.345 1222.18 849.487C1222.09 849.629 1222.02 849.788 1221.99 849.955C1221.95 850.123 1221.95 850.296 1221.99 850.463C1222.02 850.631 1222.08 850.79 1222.18 850.932L1280.62 924.884C1280.98 925.606 1281.7 925.606 1282.42 925.245Z" fill="black"/>
<path d="M1223.98 851.293C1224.13 851.203 1224.26 851.083 1224.35 850.942C1224.45 850.8 1224.52 850.64 1224.56 850.47C1224.59 850.301 1224.59 850.127 1224.55 849.958C1224.52 849.789 1224.44 849.63 1224.34 849.49L1173.48 785.279C1173.29 784.992 1172.99 784.793 1172.65 784.725C1172.31 784.658 1171.96 784.727 1171.67 784.919C1171.39 785.11 1171.19 785.408 1171.12 785.746C1171.05 786.085 1171.12 786.436 1171.31 786.723L1222.18 850.933C1222.54 851.653 1223.26 852.015 1223.98 851.293Z" fill="black"/>
<path d="M965.692 867.165L1050.83 834.338C1051.15 834.188 1051.41 833.918 1051.54 833.583C1051.67 833.249 1051.66 832.877 1051.52 832.548C1051.38 832.218 1051.11 831.957 1050.78 831.82C1050.45 831.682 1050.08 831.68 1049.75 831.813L964.61 864.641C964.284 864.79 964.029 865.061 963.901 865.395C963.772 865.73 963.779 866.101 963.92 866.431C964.061 866.76 964.325 867.022 964.657 867.159C964.988 867.296 965.359 867.298 965.692 867.165Z" fill="black"/>
<path d="M1079.33 998.477C1079.49 998.39 1079.63 998.26 1079.72 998.101C1079.82 997.942 1079.87 997.76 1079.87 997.575C1079.87 997.39 1079.82 997.208 1079.72 997.049C1079.63 996.891 1079.49 996.761 1079.33 996.673L966.053 865.363C965.936 865.237 965.795 865.136 965.638 865.065C965.481 864.995 965.312 864.957 965.14 864.954C964.968 864.951 964.797 864.982 964.638 865.047C964.478 865.111 964.334 865.207 964.212 865.329C964.091 865.451 963.995 865.596 963.932 865.755C963.868 865.915 963.837 866.086 963.84 866.258C963.844 866.429 963.883 866.599 963.953 866.755C964.024 866.912 964.126 867.053 964.253 867.169L1077.52 998.477C1077.79 998.654 1078.1 998.748 1078.42 998.748C1078.74 998.748 1079.06 998.654 1079.33 998.477Z" fill="black"/>
<path d="M1080.41 999.919C1080.57 999.832 1080.71 999.702 1080.8 999.543C1080.9 999.384 1080.95 999.203 1080.95 999.018C1080.95 998.832 1080.9 998.651 1080.8 998.492C1080.71 998.333 1080.57 998.203 1080.41 998.116L1079.33 996.672C1079.21 996.548 1079.07 996.448 1078.91 996.379C1078.76 996.309 1078.59 996.272 1078.42 996.27C1078.24 996.267 1078.08 996.299 1077.92 996.363C1077.76 996.427 1077.61 996.522 1077.49 996.643C1077.37 996.764 1077.28 996.908 1077.21 997.066C1077.15 997.225 1077.12 997.395 1077.12 997.566C1077.12 997.737 1077.16 997.905 1077.23 998.062C1077.3 998.218 1077.4 998.359 1077.52 998.476L1078.6 999.919C1078.87 1000.1 1079.19 1000.19 1079.51 1000.19C1079.83 1000.19 1080.14 1000.1 1080.41 999.919Z" fill="black"/>
<path d="M1080.05 999.921L1181.42 962.764C1181.74 962.614 1182 962.343 1182.12 962.009C1182.25 961.674 1182.25 961.303 1182.11 960.973C1181.96 960.644 1181.7 960.383 1181.37 960.245C1181.04 960.108 1180.67 960.106 1180.33 960.239L1078.96 997.756C1078.79 997.82 1078.64 997.92 1078.51 998.048C1078.38 998.176 1078.27 998.329 1078.21 998.499C1078.14 998.669 1078.11 998.85 1078.11 999.033C1078.12 999.216 1078.16 999.395 1078.24 999.559C1078.47 999.8 1078.76 999.963 1079.09 1000.03C1079.41 1000.09 1079.75 1000.06 1080.05 999.921Z" fill="black"/>
<path d="M1181.42 962.764L1282.06 925.606C1282.23 925.538 1282.39 925.437 1282.52 925.308C1282.65 925.18 1282.75 925.026 1282.82 924.857C1282.89 924.687 1282.93 924.506 1282.93 924.322C1282.93 924.139 1282.89 923.958 1282.82 923.789C1282.74 923.621 1282.64 923.468 1282.51 923.341C1282.38 923.214 1282.22 923.115 1282.05 923.049C1281.88 922.983 1281.69 922.952 1281.51 922.957C1281.33 922.963 1281.15 923.005 1280.98 923.082L1180.33 960.239C1180.16 960.303 1180.01 960.403 1179.88 960.531C1179.75 960.659 1179.64 960.812 1179.58 960.982C1179.51 961.152 1179.48 961.333 1179.48 961.516C1179.49 961.699 1179.53 961.878 1179.61 962.042C1180.11 962.494 1180.75 962.75 1181.42 962.764Z" fill="black"/>
<path d="M1295.41 1100.21C1295.57 1100.12 1295.71 1099.99 1295.81 1099.83C1295.9 1099.67 1295.95 1099.49 1295.95 1099.3C1295.95 1099.12 1295.9 1098.94 1295.81 1098.78C1295.71 1098.62 1295.57 1098.49 1295.41 1098.4L1181.78 960.959C1181.69 960.812 1181.57 960.685 1181.42 960.586C1181.28 960.488 1181.12 960.419 1180.95 960.385C1180.78 960.351 1180.61 960.353 1180.44 960.389C1180.27 960.426 1180.11 960.497 1179.97 960.598C1179.81 960.685 1179.67 960.815 1179.58 960.974C1179.48 961.132 1179.43 961.314 1179.43 961.499C1179.43 961.685 1179.48 961.866 1179.58 962.025C1179.67 962.184 1179.81 962.314 1179.97 962.401L1293.61 1099.84C1294.33 1100.57 1295.05 1100.57 1295.41 1100.21Z" fill="black"/>
<path d="M1181.78 962.402C1181.94 962.315 1182.08 962.185 1182.17 962.026C1182.27 961.868 1182.32 961.686 1182.32 961.501C1182.32 961.315 1182.27 961.134 1182.17 960.975C1182.08 960.816 1181.94 960.686 1181.78 960.599L1180.7 959.155C1180.45 958.928 1180.13 958.805 1179.8 958.81C1179.47 958.815 1179.15 958.949 1178.92 959.183C1178.69 959.418 1178.55 959.734 1178.55 960.065C1178.54 960.397 1178.66 960.717 1178.89 960.959L1179.97 962.402C1180.24 962.579 1180.56 962.673 1180.88 962.673C1181.2 962.673 1181.51 962.579 1181.78 962.402Z" fill="black"/>
<path d="M1078.96 998.837L1180.33 961.32C1180.5 961.252 1180.66 961.151 1180.79 961.022C1180.92 960.893 1181.02 960.739 1181.09 960.57C1181.16 960.401 1181.2 960.219 1181.2 960.036C1181.2 959.852 1181.16 959.671 1181.09 959.503C1181.01 959.334 1180.91 959.182 1180.78 959.055C1180.64 958.927 1180.49 958.828 1180.32 958.762C1180.15 958.696 1179.96 958.665 1179.78 958.671C1179.6 958.676 1179.42 958.719 1179.25 958.795L1077.88 996.312C1077.71 996.38 1077.56 996.482 1077.43 996.61C1077.3 996.739 1077.19 996.893 1077.12 997.062C1077.05 997.231 1077.02 997.413 1077.02 997.596C1077.02 997.78 1077.06 997.961 1077.13 998.129C1077.2 998.298 1077.31 998.45 1077.44 998.577C1077.57 998.705 1077.73 998.804 1077.9 998.87C1078.07 998.936 1078.25 998.967 1078.43 998.961C1078.62 998.956 1078.8 998.913 1078.96 998.837Z" fill="black"/>
<path d="M962.446 1041.77L1078.97 998.837C1079.29 998.688 1079.55 998.417 1079.68 998.082C1079.8 997.748 1079.8 997.376 1079.66 997.047C1079.52 996.717 1079.25 996.456 1078.92 996.319C1078.59 996.182 1078.22 996.179 1077.88 996.312L961.363 1039.24C961.193 1039.31 961.038 1039.41 960.908 1039.54C960.777 1039.67 960.674 1039.82 960.604 1039.99C960.534 1040.16 960.498 1040.34 960.499 1040.53C960.5 1040.71 960.538 1040.89 960.61 1041.06C960.682 1041.23 960.788 1041.38 960.92 1041.51C961.052 1041.63 961.208 1041.73 961.379 1041.8C961.55 1041.86 961.732 1041.9 961.916 1041.89C962.099 1041.88 962.279 1041.84 962.446 1041.77Z" fill="black"/>
<path d="M1176 869.691C1176.38 869.666 1176.73 869.506 1177 869.24C1177.26 868.975 1177.42 868.622 1177.45 868.248L1173.84 785.998C1173.85 785.805 1173.81 785.613 1173.74 785.433C1173.67 785.253 1173.57 785.089 1173.43 784.951C1173.3 784.813 1173.14 784.702 1172.96 784.627C1172.78 784.552 1172.59 784.513 1172.4 784.513C1172.2 784.513 1172.01 784.552 1171.84 784.627C1171.66 784.702 1171.5 784.813 1171.36 784.951C1171.23 785.089 1171.12 785.253 1171.05 785.433C1170.98 785.613 1170.95 785.805 1170.95 785.998L1174.56 868.248C1174.59 868.622 1174.75 868.975 1175.01 869.24C1175.28 869.505 1175.63 869.666 1176 869.691Z" fill="black"/>
<path d="M1179.97 961.32C1180.35 961.295 1180.7 961.134 1180.96 960.869C1181.23 960.604 1181.39 960.251 1181.42 959.876L1177.45 868.248C1177.45 868.055 1177.42 867.863 1177.35 867.683C1177.28 867.503 1177.17 867.339 1177.04 867.201C1176.91 867.062 1176.74 866.952 1176.57 866.877C1176.39 866.802 1176.2 866.763 1176 866.763C1175.81 866.763 1175.62 866.802 1175.44 866.877C1175.26 866.952 1175.1 867.062 1174.97 867.201C1174.83 867.339 1174.73 867.503 1174.66 867.683C1174.59 867.863 1174.56 868.055 1174.56 868.248L1178.53 959.876C1178.51 960.071 1178.54 960.266 1178.6 960.45C1178.67 960.634 1178.77 960.8 1178.91 960.938C1179.05 961.076 1179.22 961.182 1179.4 961.248C1179.58 961.314 1179.78 961.339 1179.97 961.32Z" fill="black"/>
<path d="M1103.5 897.108L1176.37 869.691C1176.54 869.623 1176.69 869.522 1176.82 869.393C1176.95 869.265 1177.06 869.111 1177.13 868.942C1177.2 868.772 1177.23 868.591 1177.23 868.407C1177.23 868.224 1177.19 868.043 1177.12 867.874C1177.05 867.706 1176.94 867.553 1176.81 867.426C1176.68 867.299 1176.52 867.2 1176.35 867.134C1176.18 867.068 1176 867.037 1175.81 867.042C1175.63 867.048 1175.45 867.09 1175.28 867.167L1102.41 894.944C1102.24 895.008 1102.09 895.108 1101.96 895.236C1101.83 895.363 1101.72 895.517 1101.66 895.687C1101.59 895.856 1101.56 896.038 1101.56 896.221C1101.57 896.403 1101.61 896.583 1101.69 896.747C1101.69 897.108 1102.77 897.468 1103.5 897.108Z" fill="black"/>
<path d="M1176.36 869.691L1223.62 851.655C1223.79 851.587 1223.95 851.485 1224.08 851.356C1224.21 851.228 1224.31 851.074 1224.38 850.905C1224.45 850.735 1224.49 850.554 1224.49 850.37C1224.49 850.187 1224.45 850.006 1224.38 849.837C1224.3 849.669 1224.2 849.517 1224.07 849.389C1223.93 849.262 1223.78 849.163 1223.61 849.097C1223.44 849.031 1223.25 849 1223.07 849.006C1222.89 849.011 1222.71 849.053 1222.54 849.13L1175.28 867.167C1175.11 867.231 1174.96 867.331 1174.83 867.459C1174.7 867.587 1174.59 867.74 1174.53 867.91C1174.46 868.079 1174.43 868.261 1174.43 868.444C1174.44 868.626 1174.48 868.806 1174.56 868.97C1175.06 869.422 1175.7 869.678 1176.36 869.691Z" fill="black"/>
<path d="M1101.33 814.859L1172.76 787.443C1172.93 787.375 1173.08 787.274 1173.21 787.145C1173.34 787.016 1173.45 786.862 1173.52 786.693C1173.59 786.524 1173.62 786.342 1173.62 786.159C1173.62 785.975 1173.58 785.794 1173.51 785.626C1173.44 785.457 1173.33 785.305 1173.2 785.178C1173.07 785.051 1172.91 784.951 1172.74 784.885C1172.57 784.819 1172.39 784.788 1172.21 784.794C1172.02 784.8 1171.84 784.842 1171.68 784.918L1100.61 812.335C1100.44 812.4 1100.28 812.499 1100.15 812.627C1100.02 812.755 1099.92 812.909 1099.85 813.078C1099.78 813.248 1099.75 813.43 1099.76 813.612C1099.76 813.795 1099.81 813.974 1099.89 814.139C1099.91 814.296 1099.97 814.446 1100.06 814.575C1100.16 814.704 1100.28 814.809 1100.42 814.879C1100.56 814.95 1100.72 814.986 1100.88 814.982C1101.04 814.978 1101.19 814.936 1101.33 814.859Z" fill="black"/>
<path d="M1051.19 834.338L1101.69 814.862C1101.86 814.794 1102.02 814.693 1102.15 814.564C1102.28 814.435 1102.38 814.282 1102.45 814.112C1102.52 813.943 1102.56 813.761 1102.55 813.578C1102.55 813.395 1102.52 813.214 1102.44 813.045C1102.37 812.877 1102.27 812.724 1102.13 812.597C1102 812.47 1101.85 812.37 1101.67 812.304C1101.5 812.239 1101.32 812.207 1101.14 812.213C1100.95 812.219 1100.77 812.261 1100.61 812.338L1050.1 831.813C1049.93 831.878 1049.78 831.977 1049.65 832.105C1049.52 832.233 1049.41 832.387 1049.35 832.556C1049.28 832.726 1049.25 832.908 1049.25 833.09C1049.26 833.273 1049.3 833.452 1049.38 833.617C1049.38 834.338 1050.46 834.699 1051.19 834.338Z" fill="black"/>
</g>
</g>
</g>
<defs>
<clipPath id="clip0_919_1103">
<rect width="387" height="1302" fill="white" transform="translate(0.5 509.1)"/>
</clipPath>
<clipPath id="clip1_919_1103">
<rect width="387" height="724.734" fill="white" transform="translate(0.5 635.959)"/>
</clipPath>
<clipPath id="clip2_919_1103">
<rect width="387" height="1302" fill="white" transform="matrix(-1 0 0 -1 1347.5 1302.1)"/>
</clipPath>
<clipPath id="clip3_919_1103">
<rect width="387" height="724.734" fill="white" transform="matrix(-1 0 0 -1 1347.5 1175.24)"/>
</clipPath>
</defs>
</svg>
